<?xml version="1.0" encoding="UTF-8"?>
<!DOCTYPE svg PUBLIC "-//W3C//DTD SVG 1.1//EN" "http://www.w3.org/Graphics/SVG/1.1/DTD/svg11.dtd">
<svg xmlns="http://www.w3.org/2000/svg" version="1.1" width="280px" height="280px" style="shape-rendering:geometricPrecision; text-rendering:geometricPrecision; image-rendering:optimizeQuality; fill-rule:evenodd; clip-rule:evenodd" xmlns:xlink="http://www.w3.org/1999/xlink">
<g><path style="opacity:0.998" fill="#285ca9" d="M 125.5,-0.5 C 134.833,-0.5 144.167,-0.5 153.5,-0.5C 213.114,8.07984 253.281,40.7465 274,97.5C 276.214,106.914 278.047,116.247 279.5,125.5C 279.5,134.833 279.5,144.167 279.5,153.5C 270.92,213.114 238.253,253.281 181.5,274C 172.086,276.214 162.753,278.047 153.5,279.5C 144.167,279.5 134.833,279.5 125.5,279.5C 65.8855,270.92 25.7189,238.253 5,181.5C 2.78601,172.086 0.952679,162.753 -0.5,153.5C -0.5,144.167 -0.5,134.833 -0.5,125.5C 8.07984,65.8855 40.7465,25.7189 97.5,5C 106.914,2.78601 116.247,0.952679 125.5,-0.5 Z"/></g>
<g><path style="opacity:1" fill="#94bdf9" d="M 128.5,43.5 C 154.371,40.0319 174.871,48.6986 190,69.5C 200.294,87.5566 201.294,106.223 193,125.5C 181.179,152.151 163.346,173.817 139.5,190.5C 111.817,171.3 92.65,145.634 82,113.5C 76.9815,85.7109 86.4815,64.5442 110.5,50C 116.375,47.2077 122.375,45.0411 128.5,43.5 Z"/></g>
<g><path style="opacity:1" fill="#285daa" d="M 131.5,71.5 C 149.549,69.2678 161.716,76.6011 168,93.5C 170.168,112.656 162.002,124.823 143.5,130C 120.069,129.229 109.236,117.062 111,93.5C 114.312,82.6939 121.145,75.3605 131.5,71.5 Z"/></g>
<g><path style="opacity:1" fill="#fafbfd" d="M 102.5,198.5 C 126.836,198.333 151.169,198.5 175.5,199C 177.286,199.785 178.786,200.951 180,202.5C 180.667,212.167 180.667,221.833 180,231.5C 178.833,232.667 177.667,233.833 176.5,235C 151.833,235.667 127.167,235.667 102.5,235C 101.333,233.833 100.167,232.667 99,231.5C 98.3333,221.833 98.3333,212.167 99,202.5C 100.376,201.295 101.542,199.962 102.5,198.5 Z"/></g>
<g><path style="opacity:1" fill="#285caa" d="M 115.5,212.5 C 131.5,212.5 147.5,212.5 163.5,212.5C 163.5,215.5 163.5,218.5 163.5,221.5C 147.5,221.5 131.5,221.5 115.5,221.5C 115.5,218.5 115.5,215.5 115.5,212.5 Z"/></g>
</svg>
