<svg id="maplibre" width="110" height="24" viewBox="0 0 110 24" fill="none" xmlns="http://www.w3.org/2000/svg">
<path d="M22.9348 10.8303L21.9375 8.57549L21.4822 10.8303L20.0079 18.2669H17.6013L20.8968 2.33136H21.157L25.5366 10.9387L26.8374 13.8223L28.1383 10.9387L32.4311 2.33136H32.6696L36.0952 18.2669H33.7103L32.1059 10.8303L31.6289 8.57549L30.7617 10.8303L26.9025 18.2669H26.7724L22.9348 10.8303Z" fill="#285DAA"/>
<path d="M42.4809 18.4837C41.5848 18.4837 40.7537 18.2741 39.9876 17.855C39.236 17.4213 38.629 16.8143 38.1664 16.0337C37.7183 15.2388 37.4943 14.3137 37.4943 13.2586C37.4943 12.2179 37.6894 11.3073 38.0797 10.5268C38.4844 9.74626 39.0553 9.13919 39.7925 8.70557C40.5297 8.27195 41.3969 8.05514 42.3942 8.05514C42.9724 8.05514 43.5144 8.15632 44.0203 8.35868C44.5262 8.56103 44.9526 8.81398 45.2995 9.11751C45.6464 9.40659 45.8776 9.69567 45.9933 9.98475L46.0366 8.31531H48.2698V18.2669H46.0583L46.0149 16.5107C45.7692 17.0311 45.3212 17.4936 44.6707 17.8983C44.0203 18.2886 43.2904 18.4837 42.4809 18.4837ZM42.8712 16.5324C43.6951 16.5324 44.3889 16.2506 44.9526 15.6869C45.5163 15.1087 45.7981 14.3571 45.7981 13.432V13.2803C45.7981 12.6587 45.668 12.1023 45.4079 11.6108C45.1477 11.1194 44.7936 10.7364 44.3455 10.4617C43.8974 10.1871 43.406 10.0498 42.8712 10.0498C41.9461 10.0498 41.2307 10.3533 40.7248 10.9604C40.2189 11.553 39.9659 12.3263 39.9659 13.2803C39.9659 14.2487 40.2117 15.0364 40.7031 15.6435C41.209 16.2361 41.9317 16.5324 42.8712 16.5324Z" fill="#285DAA"/>
<path d="M51.462 8.31531H53.7168V10.1582C54.5117 8.75616 55.7548 8.05514 57.4459 8.05514C58.8479 8.05514 59.9826 8.50322 60.8498 9.39936C61.7171 10.2811 62.1507 11.5602 62.1507 13.2369C62.1507 14.2776 61.9339 15.1954 61.5003 15.9904C61.0811 16.7854 60.5029 17.3997 59.7658 17.8333C59.0431 18.2669 58.2337 18.4837 57.3375 18.4837C56.4992 18.4837 55.7692 18.3392 55.1477 18.0501C54.5407 17.7465 54.0637 17.3202 53.7168 16.7709L53.7385 23.5354H51.462V8.31531ZM56.7955 16.5107C57.735 16.5107 58.4577 16.2144 58.9636 15.6218C59.4695 15.0147 59.7224 14.2415 59.7224 13.3019C59.7224 12.3191 59.4695 11.5386 58.9636 10.9604C58.4721 10.3678 57.7494 10.0715 56.7955 10.0715C56.2751 10.0715 55.7837 10.2016 55.3212 10.4617C54.8731 10.7075 54.5117 11.0688 54.2371 11.5458C53.977 12.0083 53.8469 12.5503 53.8469 13.1719V13.3236C53.8469 13.9451 53.977 14.5016 54.2371 14.9931C54.5117 15.47 54.8731 15.8458 55.3212 16.1205C55.7692 16.3806 56.2607 16.5107 56.7955 16.5107Z" fill="#285DAA"/>
<path d="M64.6924 2.33124H67.1423V16.0987H71.717V18.2668H64.6924V2.33124Z" fill="#95BEFA"/>
<path d="M74.0725 8.31519H76.5007V18.2668H74.0725V8.31519ZM75.2649 6.45063C74.8168 6.45063 74.441 6.29886 74.1375 5.99533C73.834 5.69179 73.6822 5.31599 73.6822 4.86791C73.6822 4.4632 73.834 4.11631 74.1375 3.82723C74.441 3.53815 74.8168 3.39361 75.2649 3.39361C75.6985 3.39361 76.0671 3.53815 76.3706 3.82723C76.6742 4.11631 76.8259 4.4632 76.8259 4.86791C76.8259 5.31599 76.6742 5.69179 76.3706 5.99533C76.0816 6.29886 75.713 6.45063 75.2649 6.45063Z" fill="#95BEFA"/>
<path d="M85.6399 18.4836C84.8305 18.4836 84.1006 18.2885 83.4502 17.8982C82.8142 17.4935 82.3733 17.031 82.1276 16.5106L82.0843 18.2668H79.8294V2.33124H82.1276V8.46696L82.0192 10.1581C82.2649 9.57992 82.7419 9.08848 83.4502 8.68377C84.1729 8.2646 84.9534 8.05502 85.7917 8.05502C86.7746 8.05502 87.6274 8.27906 88.3501 8.72713C89.0872 9.16075 89.6509 9.77505 90.0412 10.57C90.4314 11.3505 90.6266 12.2611 90.6266 13.3018C90.6266 14.357 90.3953 15.2748 89.9328 16.0553C89.4847 16.8358 88.8776 17.4357 88.1116 17.8548C87.36 18.274 86.5361 18.4836 85.6399 18.4836ZM85.2497 16.5323C86.1892 16.5323 86.9119 16.236 87.4178 15.6434C87.9237 15.0363 88.1766 14.2558 88.1766 13.3018C88.1766 12.3334 87.9237 11.5529 87.4178 10.9603C86.9264 10.3532 86.2037 10.0497 85.2497 10.0497C84.4258 10.0497 83.732 10.3388 83.1683 10.9169C82.6046 11.4806 82.3228 12.225 82.3228 13.1501V13.3018C82.3228 13.9233 82.4528 14.4798 82.713 14.9713C82.9876 15.4627 83.3418 15.8457 83.7754 16.1204C84.2235 16.395 84.7149 16.5323 85.2497 16.5323Z" fill="#95BEFA"/>
<path d="M93.0589 8.31519H95.4005V10.2665C95.6317 9.6016 96.0075 9.0668 96.5279 8.66209C97.0482 8.25738 97.6408 8.05502 98.3057 8.05502C98.7682 8.05502 99.0862 8.09838 99.2597 8.18511L98.9345 10.5483C98.8044 10.4616 98.5225 10.4182 98.0889 10.4182C97.4096 10.4182 96.788 10.6351 96.2243 11.0687C95.6751 11.5023 95.4005 12.1961 95.4005 13.1501V18.2668H93.0589V8.31519Z" fill="#95BEFA"/>
<path d="M105.62 18.4836C104.435 18.4836 103.445 18.2523 102.65 17.7898C101.855 17.3128 101.27 16.6841 100.894 15.9035C100.518 15.1086 100.33 14.2413 100.33 13.3018C100.33 12.2467 100.547 11.3216 100.981 10.5267C101.429 9.73168 102.043 9.12462 102.823 8.70545C103.604 8.27183 104.486 8.05502 105.469 8.05502C107.001 8.05502 108.135 8.48141 108.872 9.3342C109.624 10.1725 110 11.3578 110 12.8899C110 13.2801 109.978 13.6849 109.935 14.104H102.78C102.939 14.9857 103.25 15.6217 103.712 16.0119C104.189 16.4022 104.847 16.5973 105.685 16.5973C106.379 16.5973 106.95 16.5395 107.398 16.4239C107.846 16.3083 108.258 16.1493 108.634 15.9469L109.349 17.6163C108.988 17.8476 108.497 18.05 107.875 18.2234C107.254 18.3969 106.502 18.4836 105.62 18.4836ZM107.723 12.4779C107.738 11.5818 107.543 10.953 107.138 10.5917C106.733 10.2159 106.155 10.028 105.404 10.028C103.886 10.028 103.011 10.8446 102.78 12.4779H107.723Z" fill="#95BEFA"/>
<path fill-rule="evenodd" clip-rule="evenodd" d="M0 6.09306C0 2.73343 2.91762 -6.10352e-05 6.5043 -6.10352e-05C10.091 -6.10352e-05 13.0086 2.73343 13.0086 6.09306C13.0086 11.1415 7.68955 15.4039 6.85362 16.0737C6.80164 16.1154 6.76699 16.1432 6.75204 16.1564C6.68215 16.2175 6.59322 16.2483 6.5043 16.2483C6.41537 16.2483 6.32645 16.2175 6.25659 16.1564C6.24164 16.1432 6.20702 16.1154 6.15508 16.0738C5.31935 15.4041 0 11.1417 0 6.09306ZM6.50432 9.62338C8.28034 9.62338 9.72008 8.162 9.72008 6.35931C9.72008 4.55662 8.28034 3.09525 6.50432 3.09525C4.7283 3.09525 3.28855 4.55662 3.28855 6.35931C3.28855 8.162 4.7283 9.62338 6.50432 9.62338Z" fill="#95BEFA"/>
<path fill-rule="evenodd" clip-rule="evenodd" d="M2.83883 17.1496C2.35978 17.1496 1.97144 17.5379 1.97144 18.017V20.4418C1.97144 20.9208 2.35978 21.3091 2.83883 21.3091H10.1722C10.6513 21.3091 11.0396 20.9208 11.0396 20.4418V18.017C11.0396 17.5379 10.6513 17.1496 10.1722 17.1496H2.83883ZM9.20136 18.6774H3.80972V19.7813H9.20136V18.6774Z" fill="#285DAA"/>
</svg>
