<?xml version="1.0" encoding="utf-8"?>
<svg version="1.1" id="Layer_1" xmlns="http://www.w3.org/2000/svg" xmlns:xlink="http://www.w3.org/1999/xlink" x="0px" y="0px"
	 viewBox="0 0 101 22" style="enable-background:new 0 0 101 22;" xml:space="preserve">
<style type="text/css">
	.st0{fill:#285EAA;}
	.st1{fill-rule:evenodd;clip-rule:evenodd;fill:#285EAA;}
</style>
<path class="st0" d="M30.6,10.5l-0.8-1.8l-0.4,1.8l-1.2,5.8h-1.9l2.6-12.5h0.3l3.4,6.8l1,2.3l1-2.3L38,3.8h0.2l2.7,12.5H39l-1.3-5.8
	l-0.4-1.8l-0.7,1.8l-3,5.8h-0.1L30.6,10.5z"/>
<path class="st0" d="M46,16.5c-0.7,0-1.4-0.2-2-0.5c-0.6-0.3-1.1-0.8-1.4-1.4c-0.4-0.6-0.5-1.4-0.5-2.2s0.2-1.5,0.5-2.1
	c0.3-0.6,0.8-1.1,1.3-1.4c0.6-0.3,1.3-0.5,2-0.5c0.5,0,0.9,0.1,1.3,0.2c0.4,0.2,0.7,0.4,1,0.6c0.3,0.2,0.5,0.5,0.5,0.7V8.6h1.8v7.8
	h-1.7V15c-0.2,0.4-0.5,0.8-1.1,1.1C47.2,16.4,46.6,16.5,46,16.5z M46.3,15c0.6,0,1.2-0.2,1.6-0.7c0.4-0.5,0.7-1,0.7-1.8v-0.1
	c0-0.5-0.1-0.9-0.3-1.3c-0.2-0.4-0.5-0.7-0.8-0.9c-0.4-0.2-0.7-0.3-1.2-0.3c-0.7,0-1.3,0.2-1.7,0.7S44,11.7,44,12.4
	c0,0.8,0.2,1.4,0.6,1.9C45,14.7,45.6,15,46.3,15z"/>
<path class="st0" d="M53.1,8.5h1.8V10c0.6-1.1,1.6-1.7,2.9-1.7c1.1,0,2,0.4,2.7,1.1c0.7,0.7,1,1.7,1,3c0,0.8-0.2,1.5-0.5,2.2
	c-0.3,0.6-0.8,1.1-1.4,1.4c-0.6,0.3-1.2,0.5-1.9,0.5s-1.2-0.1-1.7-0.3c-0.5-0.2-0.9-0.6-1.1-1v5.3h-1.8V8.5z M57.2,15
	c0.7,0,1.3-0.2,1.7-0.7s0.6-1.1,0.6-1.8c0-0.8-0.2-1.4-0.6-1.8c-0.4-0.5-1-0.7-1.7-0.7c-0.4,0-0.8,0.1-1.2,0.3s-0.6,0.5-0.9,0.9
	c-0.2,0.4-0.3,0.8-0.3,1.3v0.1c0,0.5,0.1,0.9,0.3,1.3c0.2,0.4,0.5,0.7,0.9,0.9C56.4,14.9,56.8,15,57.2,15z"/>
<path class="st0" d="M63.5,3.8h1.9v10.8H69v1.7h-5.5V3.8z"/>
<path class="st0" d="M70.8,8.5h1.9v7.8h-1.9V8.5z M71.8,7.1c-0.4,0-0.6-0.1-0.9-0.4c-0.2-0.2-0.4-0.5-0.4-0.9c0-0.3,0.1-0.6,0.4-0.8
	c0.2-0.2,0.5-0.3,0.9-0.3c0.3,0,0.6,0.1,0.9,0.3s0.4,0.5,0.4,0.8c0,0.4-0.1,0.6-0.4,0.9C72.4,6.9,72.1,7.1,71.8,7.1z"/>
<path class="st0" d="M79.9,16.5c-0.6,0-1.2-0.2-1.7-0.5c-0.5-0.3-0.8-0.7-1-1.1v1.4h-1.8V3.8h1.8v4.8L77.1,10
	c0.2-0.5,0.6-0.8,1.1-1.2c0.6-0.3,1.2-0.5,1.8-0.5c0.8,0,1.4,0.2,2,0.5s1,0.8,1.3,1.4c0.3,0.6,0.5,1.3,0.5,2.1
	c0,0.8-0.2,1.6-0.5,2.2c-0.4,0.6-0.8,1.1-1.4,1.4C81.3,16.4,80.6,16.5,79.9,16.5z M79.6,15c0.7,0,1.3-0.2,1.7-0.7
	c0.4-0.5,0.6-1.1,0.6-1.8c0-0.8-0.2-1.4-0.6-1.8c-0.4-0.5-1-0.7-1.7-0.7c-0.6,0-1.2,0.2-1.6,0.7c-0.4,0.4-0.7,1-0.7,1.8v0.1
	c0,0.5,0.1,0.9,0.3,1.3c0.2,0.4,0.5,0.7,0.8,0.9C78.8,14.9,79.2,15,79.6,15z"/>
<path class="st0" d="M85.8,8.5h1.8V10c0.2-0.5,0.5-0.9,0.9-1.3c0.4-0.3,0.9-0.5,1.4-0.5c0.4,0,0.6,0,0.7,0.1l-0.3,1.9
	c-0.1-0.1-0.3-0.1-0.7-0.1c-0.5,0-1,0.2-1.5,0.5c-0.4,0.3-0.6,0.9-0.6,1.6v4h-1.8L85.8,8.5L85.8,8.5z"/>
<path class="st0" d="M95.6,16.5c-0.9,0-1.7-0.2-2.3-0.5c-0.6-0.4-1.1-0.9-1.4-1.5s-0.4-1.3-0.4-2c0-0.8,0.2-1.6,0.5-2.2
	c0.4-0.6,0.8-1.1,1.4-1.4c0.6-0.3,1.3-0.5,2.1-0.5c1.2,0,2.1,0.3,2.7,1s0.9,1.6,0.9,2.8c0,0.3,0,0.6-0.1,1h-5.6
	c0.1,0.7,0.4,1.2,0.7,1.5c0.4,0.3,0.9,0.5,1.6,0.5c0.5,0,1,0,1.3-0.1c0.4-0.1,0.7-0.2,1-0.4l0.6,1.3c-0.3,0.2-0.7,0.3-1.2,0.5
	C96.9,16.4,96.3,16.5,95.6,16.5z M97.3,11.8c0-0.7-0.1-1.2-0.5-1.5C96.5,10,96,9.9,95.4,9.9c-1.2,0-1.9,0.6-2.1,1.9H97.3z"/>
<path class="st1" d="M9.6,6.5c0-3.3,2.9-6,6.4-6s6.4,2.7,6.4,6c0,4.9-5.2,9.1-6,9.7c-0.1,0-0.1,0.1-0.1,0.1
	c-0.1,0.1-0.2,0.1-0.2,0.1s-0.2,0-0.2-0.1c0,0,0,0-0.1-0.1C14.8,15.6,9.6,11.5,9.6,6.5z M15.9,10c1.7,0,3.1-1.4,3.1-3.2
	s-1.4-3.2-3.1-3.2S12.8,5,12.8,6.8S14.2,10,15.9,10z"/>
<path class="st1" d="M12.4,17.3c-0.5,0-0.8,0.4-0.8,0.8v2.4c0,0.5,0.4,0.8,0.8,0.8h7.2c0.5,0,0.8-0.4,0.8-0.8v-2.4
	c0-0.5-0.4-0.8-0.8-0.8H12.4z M18.6,18.8h-5.3v1.1h5.3C18.6,19.9,18.6,18.8,18.6,18.8z"/>
</svg>
