<?xml version="1.0" standalone="no"?>
<!DOCTYPE svg PUBLIC "-//W3C//DTD SVG 20010904//EN"
 "http://www.w3.org/TR/2001/REC-SVG-20010904/DTD/svg10.dtd">
<svg version="1.0" xmlns="http://www.w3.org/2000/svg"
 width="700.000000pt" height="700.000000pt" viewBox="0 0 700.000000 700.000000"
 preserveAspectRatio="xMidYMid meet">
<metadata>
Created by potrace 1.11, written by Peter Selinger 2001-2013
</metadata>
<g transform="translate(0.000000,700.000000) scale(0.100000,-0.100000)"
fill="#000000" stroke="none">
<path d="M3279 6829 c-1068 -68 -2048 -658 -2617 -1574 -612 -985 -663 -2240
-133 -3270 176 -342 368 -603 643 -871 1176 -1148 3010 -1271 4321 -288 986
739 1486 1946 1308 3160 -140 952 -678 1785 -1499 2322 -464 303 -1022 485
-1607 522 -177 11 -231 11 -416 -1z m356 -889 c377 -36 686 -179 946 -439 392
-393 501 -880 327 -1470 -161 -548 -647 -1205 -1243 -1682 -49 -40 -92 -75
-95 -79 -20 -29 -83 -32 -93 -5 -3 6 -41 37 -84 67 -234 164 -572 485 -767
728 -531 662 -730 1350 -550 1898 67 202 177 376 343 543 255 254 572 404 931
438 124 12 163 12 285 1z m780 -3929 c51 -23 91 -70 105 -122 7 -26 10 -149 8
-347 -3 -306 -3 -307 -28 -352 -15 -27 -41 -53 -65 -67 l-40 -23 -896 0 -895
0 -45 29 c-82 51 -84 61 -87 413 -2 202 1 321 8 348 14 51 72 117 114 129 17
5 414 9 906 10 828 1 877 0 915 -18z"/>
<path d="M3355 5216 c-258 -60 -463 -246 -541 -491 -53 -168 -53 -330 1 -492
38 -113 97 -207 184 -293 90 -88 159 -131 278 -173 82 -30 97 -32 223 -31 125
0 142 2 223 31 118 41 186 84 277 173 301 294 301 784 1 1080 -139 137 -282
198 -476 206 -72 2 -130 -1 -170 -10z"/>
<path d="M2870 1550 l0 -130 618 2 617 3 3 128 3 127 -621 0 -620 0 0 -130z"/>
</g>
</svg>
